{
	"asset":{
		"generator":"Khronos glTF Blender I/O v4.4.56",
		"version":"2.0"
	},
	"scene":0,
	"scenes":[
		{
			"name":"Scene",
			"nodes":[
				0
			]
		}
	],
	"nodes":[
		{
			"mesh":0,
			"name":"tripo_node_d42bbbc8-7923-4333-9142-d3e320e20f48",
			"translation":[
				0.15415894985198975,
				0.2769014537334442,
				0.01461721584200859
			]
		}
	],
	"materials":[
		{
			"name":"tripo_mat_d42bbbc8-7923-4333-9142-d3e320e20f48",
			"pbrMetallicRoughness":{
				"baseColorTexture":{
					"index":0
				},
				"roughnessFactor":0.9036020040512085
			}
		}
	],
	"meshes":[
		{
			"name":"tripo_mesh_d42bbbc8-7923-4333-9142-d3e320e20f48",
			"primitives":[
				{
					"attributes":{
						"POSITION":0,
						"NORMAL":1,
						"TEXCOORD_0":2
					},
					"indices":3,
					"material":0
				}
			]
		}
	],
	"textures":[
		{
			"sampler":0,
			"source":0
		}
	],
	"images":[
		{
			"mimeType":"image/jpeg",
			"name":"tripo_image_d42bbbc8-7923-4333-9142-d3e320e20f48_0",
			"uri":"tripo_image_d42bbbc8-7923-4333-9142-d3e320e20f48_0.jpg"
		}
	],
	"accessors":[
		{
			"bufferView":0,
			"componentType":5126,
			"count":1498642,
			"max":[
				0.36285337805747986,
				0.40972405672073364,
				0.49998486042022705
			],
			"min":[
				-0.36286619305610657,
				-0.4097137749195099,
				-0.49999165534973145
			],
			"type":"VEC3"
		},
		{
			"bufferView":1,
			"componentType":5126,
			"count":1498642,
			"type":"VEC3"
		},
		{
			"bufferView":2,
			"componentType":5126,
			"count":1498642,
			"type":"VEC2"
		},
		{
			"bufferView":3,
			"componentType":5125,
			"count":1499952,
			"type":"SCALAR"
		}
	],
	"bufferViews":[
		{
			"buffer":0,
			"byteLength":17983704,
			"byteOffset":0,
			"target":34962
		},
		{
			"buffer":0,
			"byteLength":17983704,
			"byteOffset":17983704,
			"target":34962
		},
		{
			"buffer":0,
			"byteLength":11989136,
			"byteOffset":35967408,
			"target":34962
		},
		{
			"buffer":0,
			"byteLength":5999808,
			"byteOffset":47956544,
			"target":34963
		}
	],
	"samplers":[
		{
			"magFilter":9729,
			"minFilter":9987
		}
	],
	"buffers":[
		{
			"byteLength":53956352,
			"uri":"MotorController.bin"
		}
	]
}
