{
	"asset":{
		"generator":"Khronos glTF Blender I/O v4.4.56",
		"version":"2.0"
	},
	"extensionsUsed":[
		"KHR_materials_clearcoat"
	],
	"scene":0,
	"scenes":[
		{
			"name":"Scene",
			"nodes":[
				7
			]
		}
	],
	"nodes":[
		{
			"mesh":0,
			"name":"Battery_Shield_v20:_Component2:1:_Placa:1:_Body2.001_Default.00"
		},
		{
			"mesh":1,
			"name":"Battery_Shield_v20:_Component2:1:_Placa:1:_Body2.001_Materi"
		},
		{
			"mesh":2,
			"name":"Battery_Shield_v20:_Component2:1:_Placa:1:_Body2.001_Materi.001"
		},
		{
			"mesh":3,
			"name":"Battery_Shield_v20:_Component2:1:_Placa:1:_Body2.001_Material.0"
		},
		{
			"children":[
				0,
				1,
				2,
				3
			],
			"name":"Battery_Shield_v20:_Component2:1:_Placa:1:_Body2.001",
			"scale":[
				100,
				100,
				100
			],
			"translation":[
				0.001468658447265625,
				-0.5350924730300903,
				1.2291873693466187
			]
		},
		{
			"children":[
				4
			],
			"name":"RootNode"
		},
		{
			"children":[
				5
			],
			"name":"20ab6303b63843a0971c8bd95e85f0b6.fbx",
			"rotation":[
				0.70710688829422,
				0,
				0,
				0.7071066498756409
			],
			"scale":[
				0.010000000707805157,
				0.010000001639127731,
				0.010000002570450306
			]
		},
		{
			"children":[
				6
			],
			"name":"Sketchfab_model",
			"rotation":[
				-0.714024543762207,
				0.0012850016355514526,
				-0.0012849927879869938,
				0.7001183032989502
			],
			"scale":[
				25.233299255371094,
				25.233293533325195,
				25.233304977416992
			]
		}
	],
	"materials":[
		{
			"doubleSided":true,
			"extensions":{
				"KHR_materials_clearcoat":{
					"clearcoatFactor":1,
					"clearcoatRoughnessFactor":0.03999999910593033
				}
			},
			"name":"Default.001",
			"pbrMetallicRoughness":{
				"baseColorFactor":[
					0.005429854150861502,
					0.116207055747509,
					0.6688891053199768,
					1
				],
				"metallicFactor":0,
				"roughnessFactor":0.19345903396606445
			}
		},
		{
			"doubleSided":true,
			"name":"Material.036",
			"pbrMetallicRoughness":{
				"baseColorFactor":[
					0.3444659113883972,
					0.3444659113883972,
					0.3444659113883972,
					1
				],
				"metallicFactor":0,
				"roughnessFactor":0.9558243751525879
			}
		},
		{
			"doubleSided":true,
			"name":"Material.035",
			"pbrMetallicRoughness":{
				"metallicFactor":0,
				"roughnessFactor":0.16837547719478607
			}
		},
		{
			"doubleSided":true,
			"name":"Material.034",
			"pbrMetallicRoughness":{
				"roughnessFactor":0.3502312898635864
			}
		}
	],
	"meshes":[
		{
			"name":"Battery_Shield_v20:_Component2:1:_Placa:1:_Body2.001_Default.00",
			"primitives":[
				{
					"attributes":{
						"POSITION":0,
						"NORMAL":1,
						"TEXCOORD_0":2
					},
					"indices":3,
					"material":0
				}
			]
		},
		{
			"name":"Battery_Shield_v20:_Component2:1:_Placa:1:_Body2.001_Materi",
			"primitives":[
				{
					"attributes":{
						"POSITION":4,
						"NORMAL":5,
						"TEXCOORD_0":6
					},
					"indices":7,
					"material":1
				}
			]
		},
		{
			"name":"Battery_Shield_v20:_Component2:1:_Placa:1:_Body2.001_Materi.001",
			"primitives":[
				{
					"attributes":{
						"POSITION":8,
						"NORMAL":9,
						"TEXCOORD_0":10
					},
					"indices":11,
					"material":2
				}
			]
		},
		{
			"name":"Battery_Shield_v20:_Component2:1:_Placa:1:_Body2.001_Material.0",
			"primitives":[
				{
					"attributes":{
						"POSITION":12,
						"NORMAL":13,
						"TEXCOORD_0":14
					},
					"indices":15,
					"material":3
				}
			]
		}
	],
	"accessors":[
		{
			"bufferView":0,
			"componentType":5126,
			"count":4413,
			"max":[
				0.0091498838737607,
				0.036423586308956146,
				0.00915000680834055
			],
			"min":[
				-0.009150112979114056,
				-0.028226414695382118,
				-0.009150003083050251
			],
			"type":"VEC3"
		},
		{
			"bufferView":1,
			"componentType":5126,
			"count":4413,
			"type":"VEC3"
		},
		{
			"bufferView":2,
			"componentType":5126,
			"count":4413,
			"type":"VEC2"
		},
		{
			"bufferView":3,
			"componentType":5123,
			"count":16794,
			"type":"SCALAR"
		},
		{
			"bufferView":4,
			"componentType":5126,
			"count":32,
			"max":[
				0.00841176975518465,
				0.03557358682155609,
				0.0084118926897645
			],
			"min":[
				-0.008411998860538006,
				0.035573579370975494,
				-0.008411874063313007
			],
			"type":"VEC3"
		},
		{
			"bufferView":5,
			"componentType":5126,
			"count":32,
			"type":"VEC3"
		},
		{
			"bufferView":6,
			"componentType":5126,
			"count":32,
			"type":"VEC2"
		},
		{
			"bufferView":7,
			"componentType":5123,
			"count":90,
			"type":"SCALAR"
		},
		{
			"bufferView":8,
			"componentType":5126,
			"count":264,
			"max":[
				0.008499880321323872,
				0.03627358376979828,
				0.008500010706484318
			],
			"min":[
				-0.008500109426677227,
				0.03577358275651932,
				-0.008499990217387676
			],
			"type":"VEC3"
		},
		{
			"bufferView":9,
			"componentType":5126,
			"count":264,
			"type":"VEC3"
		},
		{
			"bufferView":10,
			"componentType":5126,
			"count":264,
			"type":"VEC2"
		},
		{
			"bufferView":11,
			"componentType":5123,
			"count":768,
			"type":"SCALAR"
		},
		{
			"bufferView":12,
			"componentType":5126,
			"count":3340,
			"max":[
				0.00899988878518343,
				0.03677358478307724,
				0.009000011719763279
			],
			"min":[
				-0.009000117890536785,
				-0.028076419606804848,
				-0.009000004269182682
			],
			"type":"VEC3"
		},
		{
			"bufferView":13,
			"componentType":5126,
			"count":3340,
			"type":"VEC3"
		},
		{
			"bufferView":14,
			"componentType":5126,
			"count":3340,
			"type":"VEC2"
		},
		{
			"bufferView":15,
			"componentType":5123,
			"count":12798,
			"type":"SCALAR"
		}
	],
	"bufferViews":[
		{
			"buffer":0,
			"byteLength":52956,
			"byteOffset":0,
			"target":34962
		},
		{
			"buffer":0,
			"byteLength":52956,
			"byteOffset":52956,
			"target":34962
		},
		{
			"buffer":0,
			"byteLength":35304,
			"byteOffset":105912,
			"target":34962
		},
		{
			"buffer":0,
			"byteLength":33588,
			"byteOffset":141216,
			"target":34963
		},
		{
			"buffer":0,
			"byteLength":384,
			"byteOffset":174804,
			"target":34962
		},
		{
			"buffer":0,
			"byteLength":384,
			"byteOffset":175188,
			"target":34962
		},
		{
			"buffer":0,
			"byteLength":256,
			"byteOffset":175572,
			"target":34962
		},
		{
			"buffer":0,
			"byteLength":180,
			"byteOffset":175828,
			"target":34963
		},
		{
			"buffer":0,
			"byteLength":3168,
			"byteOffset":176008,
			"target":34962
		},
		{
			"buffer":0,
			"byteLength":3168,
			"byteOffset":179176,
			"target":34962
		},
		{
			"buffer":0,
			"byteLength":2112,
			"byteOffset":182344,
			"target":34962
		},
		{
			"buffer":0,
			"byteLength":1536,
			"byteOffset":184456,
			"target":34963
		},
		{
			"buffer":0,
			"byteLength":40080,
			"byteOffset":185992,
			"target":34962
		},
		{
			"buffer":0,
			"byteLength":40080,
			"byteOffset":226072,
			"target":34962
		},
		{
			"buffer":0,
			"byteLength":26720,
			"byteOffset":266152,
			"target":34962
		},
		{
			"buffer":0,
			"byteLength":25596,
			"byteOffset":292872,
			"target":34963
		}
	],
	"buffers":[
		{
			"byteLength":318468,
			"uri":"Batteryglb.bin"
		}
	]
}
